<svg width="24" height="24" viewBox="0 0 24 24" fill="none" xmlns="http://www.w3.org/2000/svg">
<circle cx="12" cy="12" r="12" fill="#9BB8CA"/>
<path d="M10.6206 6.8144C10.4924 6.8144 10.3671 6.77639 10.2605 6.70516C10.1539 6.63394 10.0708 6.5327 10.0218 6.41426C9.97269 6.29582 9.95986 6.16549 9.98487 6.03975C10.0099 5.91401 10.0716 5.79851 10.1623 5.70786C10.2529 5.61721 10.3684 5.55547 10.4942 5.53046C10.6199 5.50545 10.7502 5.51829 10.8687 5.56735C10.9871 5.61641 11.0883 5.69949 11.1596 5.80608C11.2308 5.91268 11.2688 6.038 11.2688 6.1662C11.2686 6.33806 11.2003 6.50282 11.0787 6.62434C10.9572 6.74586 10.7925 6.81421 10.6206 6.8144V6.8144Z" fill="#FFFBF3" stroke="#D1C1AD" stroke-width="0.3" stroke-miterlimit="10" stroke-dasharray="3 3"/>
<path d="M12.781 5.08586C12.6528 5.08586 12.5275 5.04784 12.4209 4.97662C12.3143 4.90539 12.2312 4.80416 12.1822 4.68571C12.1331 4.56727 12.1203 4.43694 12.1453 4.3112C12.1703 4.18546 12.232 4.06997 12.3227 3.97931C12.4133 3.88866 12.5288 3.82693 12.6546 3.80191C12.7803 3.7769 12.9106 3.78974 13.0291 3.8388C13.1475 3.88786 13.2487 3.97094 13.32 4.07754C13.3912 4.18413 13.4292 4.30946 13.4292 4.43766C13.429 4.60951 13.3607 4.77427 13.2391 4.89579C13.1176 5.01731 12.9529 5.08567 12.781 5.08586V5.08586Z" fill="#FFFBF3" stroke="#D1C1AD" stroke-width="0.3" stroke-miterlimit="10" stroke-dasharray="3 3"/>
<path d="M12.9971 7.67867C12.8261 7.67867 12.659 7.62798 12.5169 7.53301C12.3748 7.43804 12.264 7.30306 12.1986 7.14514C12.1332 6.98722 12.1161 6.81344 12.1494 6.64579C12.1828 6.47814 12.2651 6.32414 12.386 6.20327C12.5068 6.0824 12.6608 6.00009 12.8285 5.96674C12.9961 5.93339 13.1699 5.95051 13.3278 6.01592C13.4857 6.08134 13.6207 6.19211 13.7157 6.33424C13.8107 6.47637 13.8613 6.64346 13.8613 6.8144C13.8613 7.04362 13.7703 7.26345 13.6082 7.42553C13.4461 7.58761 13.2263 7.67867 12.9971 7.67867V7.67867Z" fill="#FFFBF3" stroke="#D1C1AD" stroke-width="0.3" stroke-miterlimit="10" stroke-dasharray="3 3"/>
<path d="M10.5986 9.48771L10.5051 13.6376L6.94727 19.1141V20.2105H16.4542V19.1141L12.9036 13.6289L12.8415 9.4766L13.5776 9.47104V8.54294H9.8424V9.48454L10.5986 9.48771Z" stroke="#826E4E" stroke-width="0.4" stroke-miterlimit="10"/>
<path d="M8.2439 19.3463L10.5765 15.4571H13.2453L15.5902 19.3463H8.2439Z" fill="#FFFBF3" stroke="#D1C1AD" stroke-width="0.3" stroke-miterlimit="10" stroke-dasharray="3 3"/>
</svg>
