<svg width="24" height="24" viewBox="0 0 24 24" fill="#C9A17E" xmlns="http://www.w3.org/2000/svg">
<path fill-rule="evenodd" clip-rule="evenodd" d="M10 0H14V2.19979C15.2941 2.46249 16.4975 2.97511 17.5576 3.68507L19.1064 2.13623L21.9349 4.96466L20.3715 6.52799C21.0521 7.56708 21.5444 8.74057 21.8 10H24V14H21.7999C21.5372 15.2941 21.0246 16.4974 20.3147 17.5574L21.8638 19.1065L19.0354 21.9349L17.4718 20.3713C16.4327 21.0518 15.2593 21.5441 14 21.7997V24H10V21.7997C8.70597 21.537 7.50268 21.0245 6.44268 20.3146L4.89343 21.8639L2.06501 19.0355L3.62865 17.4718C2.94809 16.4328 2.45576 15.2594 2.20009 14H0V10H2.19999C2.46263 8.70594 2.97517 7.50262 3.68502 6.44259L2.13605 4.89361L4.96448 2.06519L6.5278 3.6285C7.56693 2.94785 8.74048 2.45546 10 2.19979V0ZM12 19C15.866 19 19 15.866 19 12C19 8.13401 15.866 5 12 5C8.13401 5 5 8.13401 5 12C5 15.866 8.13401 19 12 19Z" fill="#C9A17E"/>
</svg>
