<svg width="25" height="25" viewBox="0 0 25 25" fill="none" xmlns="http://www.w3.org/2000/svg">
<path d="M15.6143 14.5H14.8243L14.5443 14.23C15.5243 13.09 16.1143 11.61 16.1143 10C16.1143 6.41 13.2043 3.5 9.61426 3.5C6.02426 3.5 3.11426 6.41 3.11426 10C3.11426 13.59 6.02426 16.5 9.61426 16.5C11.2243 16.5 12.7043 15.91 13.8443 14.93L14.1143 15.21V16L19.1143 20.99L20.6043 19.5L15.6143 14.5ZM9.61426 14.5C7.12426 14.5 5.11426 12.49 5.11426 10C5.11426 7.51 7.12426 5.5 9.61426 5.5C12.1043 5.5 14.1143 7.51 14.1143 10C14.1143 12.49 12.1043 14.5 9.61426 14.5Z" fill="#C9A17E"/>
</svg>
