<svg width="20" height="20" viewBox="0 0 20 20" fill="none" xmlns="http://www.w3.org/2000/svg">
<g clip-path="url(#clip0)">
<path d="M14.4081 13.0786H13.5048L13.1846 12.7699C14.3052 11.4663 14.9799 9.77387 14.9799 7.93282C14.9799 3.82762 11.6523 0.5 7.54708 0.5C3.44187 0.5 0.114258 3.82762 0.114258 7.93282C0.114258 12.038 3.44187 15.3656 7.54708 15.3656C9.38813 15.3656 11.0805 14.691 12.3841 13.5703L12.6929 13.8905V14.7939L18.4104 20.5L20.1143 18.7962L14.4081 13.0786ZM7.54708 13.0786C4.69974 13.0786 2.40128 10.7802 2.40128 7.93282C2.40128 5.08548 4.69974 2.78702 7.54708 2.78702C10.3944 2.78702 12.6929 5.08548 12.6929 7.93282C12.6929 10.7802 10.3944 13.0786 7.54708 13.0786Z" fill="#D2C6B4"/>
</g>
<defs>
<clipPath id="clip0">
<rect width="20" height="20" fill="white" transform="translate(0.114258 0.5)"/>
</clipPath>
</defs>
</svg>
