<svg width="80" height="80" viewBox="0 0 80 80" fill="none" xmlns="http://www.w3.org/2000/svg">
<path d="M76 40C76 47.1201 73.8886 54.0804 69.9329 60.0005C65.9772 65.9207 60.3547 70.5349 53.7766 73.2597C47.1985 75.9844 39.9601 76.6973 32.9767 75.3083C25.9934 73.9192 19.5788 70.4905 14.5442 65.4558C9.50947 60.4212 6.0808 54.0066 4.69173 47.0233C3.30266 40.0399 4.01558 32.8015 6.74034 26.2234C9.46509 19.6453 14.0793 14.0228 19.9995 10.0671C25.9196 6.11136 32.8799 4 40 4" stroke="#AB855E" stroke-width="8"/>
<path d="M76 40C76 35.2724 75.0688 30.5911 73.2597 26.2234C71.4505 21.8557 68.7988 17.8871 65.4558 14.5442C62.1129 11.2012 58.1443 8.54951 53.7766 6.74034C49.4089 4.93117 44.7276 4 40 4" stroke="#EABF9A" stroke-width="8"/>
</svg>
