<svg width="24" height="24" viewBox="0 0 24 24" fill="#2C2925" xmlns="http://www.w3.org/2000/svg">
<path d="M7.01522 10.6627C6.00001 8.91561 6.44766 6.64815 8.11493 5.42861L13.4843 1.50114C15.2673 0.19691 17.7701 0.585071 19.0743 2.36812L20.6836 4.56831C21.9879 6.35137 21.5997 8.85411 19.8167 10.1583L14.4473 14.0858C12.7801 15.3053 10.4835 15.0451 9.12602 13.5484L10.4221 12.6004L10.3027 12.4372C10.9564 13.3217 12.2029 13.5127 13.0917 12.8625L19.0615 8.49589C19.953 7.84377 20.1471 6.5924 19.495 5.70087L17.6349 3.15791C16.9828 2.26639 15.7314 2.07231 14.8399 2.72442L8.87011 7.09107C7.9813 7.7412 7.78569 8.98694 8.43068 9.87793L8.31129 9.7147L7.01522 10.6627Z" fill="#2C2925"/>
<path d="M7.24219 11.0107C7.24411 11.0134 7.24603 11.016 7.24795 11.0186L8.8573 13.2188C8.85923 13.2214 8.86116 13.2241 8.86308 13.2267L7.24219 11.0107Z" fill="#2C2925"/>
<path d="M14.8739 10.4514C13.5164 8.95473 11.2199 8.69453 9.55259 9.91408L4.18325 13.8415C2.40019 15.1458 2.01204 17.6485 3.31627 19.4316L4.92562 21.6318C6.22985 23.4148 8.73259 23.803 10.5156 22.4987L15.885 18.5713C17.5523 17.3517 17.9999 15.0843 16.9847 13.3372L15.6886 14.2852L15.5653 14.1165C16.215 15.0079 16.0204 16.2574 15.1298 16.9088L9.16004 21.2755C8.26851 21.9276 7.01714 21.7335 6.36502 20.842L4.50495 18.299C3.85283 17.4075 4.04691 16.1561 4.93844 15.504L10.9082 11.1374C11.7988 10.4859 13.0486 10.679 13.7012 11.5682L13.5778 11.3995L14.8739 10.4514Z" fill="#2C2925"/>
<path d="M15.1359 10.772C15.1382 10.775 15.1404 10.778 15.1426 10.7811L16.752 12.9812C16.7542 12.9843 16.7564 12.9873 16.7586 12.9904L15.1359 10.772Z" fill="#2C2925"/>
</svg>
