<svg width="20" height="24" viewBox="0 0 20 24" fill="none" xmlns="http://www.w3.org/2000/svg">
<path d="M5.01571 10.6628C4.0005 8.91574 4.44814 6.64827 6.11542 5.42873L11.4848 1.50126C13.2678 0.197032 15.7706 0.585193 17.0748 2.36825L18.6841 4.56844C19.9884 6.35149 19.6002 8.85423 17.8172 10.1585L12.4478 14.0859C10.7805 15.3055 8.48403 15.0453 7.12651 13.5486L8.42257 12.6005L8.30316 12.4373C8.95692 13.3219 10.2034 13.5128 11.0922 12.8627L17.062 8.49601C17.9535 7.84389 18.1476 6.59252 17.4954 5.701L15.6354 3.15804C14.9833 2.26651 13.7319 2.07243 12.8404 2.72455L6.8706 7.09119C5.98179 7.74132 5.78618 8.98706 6.43117 9.87805L6.31177 9.71482L5.01571 10.6628Z" fill="#C9A17E"/>
<path d="M5.24268 11.0109C5.2446 11.0135 5.24652 11.0161 5.24844 11.0187L6.85779 13.2189C6.85972 13.2216 6.86164 13.2242 6.86357 13.2268L5.24268 11.0109Z" fill="#C9A17E"/>
<path d="M12.8744 10.4516C11.5169 8.95486 9.22035 8.69465 7.55308 9.9142L2.18373 13.8417C0.400682 15.1459 0.0125241 17.6486 1.31676 19.4317L2.92611 21.6319C4.23034 23.4149 6.73308 23.8031 8.51613 22.4989L13.8855 18.5714C15.5527 17.3519 16.0004 15.0844 14.9852 13.3373L13.6891 14.2853L13.5658 14.1167C14.2155 15.008 14.0209 16.2575 13.1303 16.909L7.16052 21.2756C6.269 21.9277 5.01763 21.7336 4.36551 20.8421L2.50544 18.2992C1.85332 17.4076 2.0474 16.1563 2.93893 15.5041L8.90869 11.1375C9.79932 10.486 11.0491 10.6791 11.7017 11.5683L11.5783 11.3996L12.8744 10.4516Z" fill="#C9A17E"/>
<path d="M13.1364 10.7721C13.1387 10.7751 13.1409 10.7781 13.1431 10.7812L14.7525 12.9814C14.7547 12.9844 14.7569 12.9874 14.7591 12.9905L13.1364 10.7721Z" fill="#C9A17E"/>
</svg>
